<?xml version="1.0" encoding="UTF-8" standalone="no"?>
<!DOCTYPE svg PUBLIC "-//W3C//DTD SVG 1.1//EN"
 "http://www.w3.org/Graphics/SVG/1.1/DTD/svg11.dtd">
<!-- Generated by graphviz version 14.1.2 (0)
 -->
<!-- Title: gpu_access Pages: 1 -->
<svg width="593pt" height="717pt"
 viewBox="0.00 0.00 593.00 717.00" xmlns="http://www.w3.org/2000/svg" xmlns:xlink="http://www.w3.org/1999/xlink">
<g id="graph0" class="graph" transform="scale(1 1) rotate(0) translate(4 712.95)">
<title>gpu_access</title>
<polygon fill="white" stroke="none" points="-4,4 -4,-712.95 588.5,-712.95 588.5,4 -4,4"/>
<text xml:space="preserve" text-anchor="start" x="8" y="-686.95" font-family="DejaVu Sans" font-weight="bold" font-size="20.00">Wie Asterisk auf ipgate1 den GPU&#45;Service erreicht</text>
<text xml:space="preserve" text-anchor="start" x="65.38" y="-675.5" font-family="DejaVu Sans" font-size="11.00" fill="#555555">Call&#45;Media&#45;Pfad · verifiziert 2026&#45;07&#45;20 · GPU = yt6.heissa.de (dell&#45;3660, Tesla P4)</text>
<g id="clust1" class="cluster">
<title>cluster_ipgate1</title>
<path fill="#eaf5f6" stroke="#0d7a84" d="M75.64,-310.5C75.64,-310.5 379.64,-310.5 379.64,-310.5 385.64,-310.5 391.64,-316.5 391.64,-322.5 391.64,-322.5 391.64,-584.7 391.64,-584.7 391.64,-590.7 385.64,-596.7 379.64,-596.7 379.64,-596.7 75.64,-596.7 75.64,-596.7 69.64,-596.7 63.64,-590.7 63.64,-584.7 63.64,-584.7 63.64,-322.5 63.64,-322.5 63.64,-316.5 69.64,-310.5 75.64,-310.5"/>
<text xml:space="preserve" text-anchor="start" x="71.64" y="-582.3" font-family="DejaVu Sans" font-weight="bold" font-size="12.00">ipgate1 — Asterisk&#45;Host</text>
<text xml:space="preserve" text-anchor="start" x="236.64" y="-582.3" font-family="DejaVu Sans" font-size="12.00"> &#160;</text>
<text xml:space="preserve" text-anchor="start" x="244.14" y="-582.3" font-family="DejaVu Sans" font-size="9.00" fill="#0d7a84">keine GPU · alles auf 127.0.0.1</text>
</g>
<g id="clust2" class="cluster">
<title>cluster_gpu</title>
<path fill="#fbf1df" stroke="#a86300" d="M119.64,-8C119.64,-8 332.64,-8 332.64,-8 338.64,-8 344.64,-14 344.64,-20 344.64,-20 344.64,-248.75 344.64,-248.75 344.64,-254.75 338.64,-260.75 332.64,-260.75 332.64,-260.75 119.64,-260.75 119.64,-260.75 113.64,-260.75 107.64,-254.75 107.64,-248.75 107.64,-248.75 107.64,-20 107.64,-20 107.64,-14 113.64,-8 119.64,-8"/>
<text xml:space="preserve" text-anchor="start" x="115.51" y="-246.35" font-family="DejaVu Sans" font-weight="bold" font-size="12.00">yt6.heissa.de = dell&#45;3660</text>
<text xml:space="preserve" text-anchor="start" x="287.26" y="-246.35" font-family="DejaVu Sans" font-size="12.00"> &#160;</text>
<text xml:space="preserve" text-anchor="start" x="294.76" y="-246.35" font-family="DejaVu Sans" font-size="9.00" fill="#a86300">GPU&#45;Host</text>
</g>
<!-- caller -->
<g id="node1" class="node">
<title>caller</title>
<path fill="#f4f6f9" stroke="#3a4550" stroke-dasharray="5,2" d="M283.22,-669.95C283.22,-669.95 168.05,-669.95 168.05,-669.95 162.05,-669.95 156.05,-663.95 156.05,-657.95 156.05,-657.95 156.05,-645.95 156.05,-645.95 156.05,-639.95 162.05,-633.95 168.05,-633.95 168.05,-633.95 283.22,-633.95 283.22,-633.95 289.22,-633.95 295.22,-639.95 295.22,-645.95 295.22,-645.95 295.22,-657.95 295.22,-657.95 295.22,-663.95 289.22,-669.95 283.22,-669.95"/>
<text xml:space="preserve" text-anchor="start" x="169.01" y="-652.5" font-family="DejaVu Sans" font-weight="bold" font-size="11.00">Anrufer / SIP&#45;Trunk</text>
<text xml:space="preserve" text-anchor="start" x="180.64" y="-643.4" font-family="DejaVu Sans" font-size="9.00" fill="#555555">chan_pjsip · SIP/RTP</text>
</g>
<!-- asterisk -->
<g id="node2" class="node">
<title>asterisk</title>
<path fill="white" stroke="#0d7a84" d="M307.6,-560.45C307.6,-560.45 143.68,-560.45 143.68,-560.45 137.68,-560.45 131.68,-554.45 131.68,-548.45 131.68,-548.45 131.68,-529.05 131.68,-529.05 131.68,-523.05 137.68,-517.05 143.68,-517.05 143.68,-517.05 307.6,-517.05 307.6,-517.05 313.6,-517.05 319.6,-523.05 319.6,-529.05 319.6,-529.05 319.6,-548.45 319.6,-548.45 319.6,-554.45 313.6,-560.45 307.6,-560.45"/>
<text xml:space="preserve" text-anchor="start" x="159.64" y="-543.8" font-family="DejaVu Sans" font-weight="bold" font-size="11.00">Asterisk 22 · Dialplan</text>
<text xml:space="preserve" text-anchor="start" x="166.76" y="-534.7" font-family="DejaVu Sans" font-size="9.00" fill="#555555">extensions_translator.conf</text>
<text xml:space="preserve" text-anchor="start" x="144.64" y="-525.7" font-family="DejaVu Sans" font-size="9.00" fill="#555555">AudioSocket(uuid, 127.0.0.1:9093)</text>
</g>
<!-- caller&#45;&gt;asterisk -->
<g id="edge5" class="edge">
<title>caller&#45;&gt;asterisk</title>
<path fill="none" stroke="#3a4550" d="M225.64,-633.58C225.64,-617.21 225.64,-592.28 225.64,-572.23"/>
<polygon fill="#3a4550" stroke="#3a4550" points="229.14,-572.31 225.64,-562.31 222.14,-572.31 229.14,-572.31"/>
<text xml:space="preserve" text-anchor="middle" x="309.64" y="-607.4" font-family="DejaVu Sans Mono" font-size="9.00" fill="#33404b">Call&#45;Bein → Übersetzungs&#45;Context</text>
</g>
<!-- translator -->
<g id="node3" class="node">
<title>translator</title>
<path fill="white" stroke="#0d7a84" d="M326.35,-458.55C326.35,-458.55 124.93,-458.55 124.93,-458.55 118.93,-458.55 112.93,-452.55 112.93,-446.55 112.93,-446.55 112.93,-427.15 112.93,-427.15 112.93,-421.15 118.93,-415.15 124.93,-415.15 124.93,-415.15 326.35,-415.15 326.35,-415.15 332.35,-415.15 338.35,-421.15 338.35,-427.15 338.35,-427.15 338.35,-446.55 338.35,-446.55 338.35,-452.55 332.35,-458.55 326.35,-458.55"/>
<text xml:space="preserve" text-anchor="start" x="146.14" y="-441.9" font-family="DejaVu Sans" font-weight="bold" font-size="11.00">audiosocket_translator.py</text>
<text xml:space="preserve" text-anchor="start" x="125.89" y="-432.8" font-family="DejaVu Sans" font-size="9.00" fill="#555555">AudioSocket&#45;Server :9093 · HTTP&#45;GW :9094</text>
<text xml:space="preserve" text-anchor="start" x="159.64" y="-423.8" font-family="DejaVu Sans" font-size="9.00" fill="#555555">AMI :5038 · VAD (webrtcvad)</text>
</g>
<!-- asterisk&#45;&gt;translator -->
<g id="edge1" class="edge">
<title>asterisk&#45;&gt;translator</title>
<path fill="none" stroke="#3a4550" d="M225.64,-516.56C225.64,-503.19 225.64,-485.63 225.64,-470.5"/>
<polygon fill="#3a4550" stroke="#3a4550" points="229.14,-470.52 225.64,-460.52 222.14,-470.52 229.14,-470.52"/>
<text xml:space="preserve" text-anchor="start" x="225.64" y="-490.5" font-family="DejaVu Sans Mono" font-size="9.00" fill="#33404b">AudioSocket · TCP 9093</text>
<text xml:space="preserve" text-anchor="start" x="225.64" y="-479.25" font-family="DejaVu Sans Mono" font-size="9.00" fill="#33404b">SLIN16 16 kHz PCM</text>
</g>
<!-- client -->
<g id="node4" class="node">
<title>client</title>
<path fill="white" stroke="#0d7a84" d="M309.85,-367.9C309.85,-367.9 141.43,-367.9 141.43,-367.9 135.43,-367.9 129.43,-361.9 129.43,-355.9 129.43,-355.9 129.43,-336.5 129.43,-336.5 129.43,-330.5 135.43,-324.5 141.43,-324.5 141.43,-324.5 309.85,-324.5 309.85,-324.5 315.85,-324.5 321.85,-330.5 321.85,-336.5 321.85,-336.5 321.85,-355.9 321.85,-355.9 321.85,-361.9 315.85,-367.9 309.85,-367.9"/>
<text xml:space="preserve" text-anchor="start" x="158.51" y="-351.25" font-family="DejaVu Sans" font-weight="bold" font-size="11.00">Inference&#45;HTTP&#45;Client</text>
<text xml:space="preserve" text-anchor="start" x="154.01" y="-342.15" font-family="DejaVu Sans" font-size="9.00" fill="#555555">http.client → INFER_HOST:9095</text>
<text xml:space="preserve" text-anchor="start" x="142.39" y="-333.15" font-family="DejaVu Sans" font-size="9.00" fill="#555555">POST /stt · /translate · /tts · Retry 3×</text>
</g>
<!-- translator&#45;&gt;client -->
<g id="edge2" class="edge">
<title>translator&#45;&gt;client</title>
<path fill="none" stroke="#3a4550" stroke-dasharray="1,5" d="M225.64,-414.84C225.64,-404.32 225.64,-391.35 225.64,-379.59"/>
<polygon fill="#3a4550" stroke="#3a4550" points="229.14,-379.88 225.64,-369.88 222.14,-379.88 229.14,-379.88"/>
<text xml:space="preserve" text-anchor="middle" x="272.89" y="-388.6" font-family="DejaVu Sans Mono" font-size="9.00" fill="#33404b">pro Sprach&#45;Segment</text>
</g>
<!-- server -->
<g id="node5" class="node">
<title>server</title>
<path fill="white" stroke="#a86300" d="M318.1,-224.5C318.1,-224.5 133.18,-224.5 133.18,-224.5 127.18,-224.5 121.18,-218.5 121.18,-212.5 121.18,-212.5 121.18,-200.5 121.18,-200.5 121.18,-194.5 127.18,-188.5 133.18,-188.5 133.18,-188.5 318.1,-188.5 318.1,-188.5 324.1,-188.5 330.1,-194.5 330.1,-200.5 330.1,-200.5 330.1,-212.5 330.1,-212.5 330.1,-218.5 324.1,-224.5 318.1,-224.5"/>
<text xml:space="preserve" text-anchor="start" x="165.26" y="-207.05" font-family="DejaVu Sans" font-weight="bold" font-size="11.00">inference_server.py</text>
<text xml:space="preserve" text-anchor="start" x="134.14" y="-197.95" font-family="DejaVu Sans" font-size="9.00" fill="#555555">HTTP · LISTEN [::]:9095 (+10.9.0.6 WG)</text>
</g>
<!-- client&#45;&gt;server -->
<g id="edge6" class="edge">
<title>client&#45;&gt;server</title>
<path fill="none" stroke="#6b7885" stroke-width="2.2" d="M225.64,-324.29C225.64,-301.31 225.64,-264.18 225.64,-237.97"/>
<polygon fill="#6b7885" stroke="#6b7885" stroke-width="2.2" points="229.14,-238.02 225.64,-228.02 222.14,-238.02 229.14,-238.02"/>
<text xml:space="preserve" text-anchor="start" x="225.64" y="-293.95" font-family="DejaVu Sans Mono" font-size="9.00" fill="#33404b"> &#160;Netz&#45;Hop: public IPv6 (ens6)</text>
<text xml:space="preserve" text-anchor="start" x="225.64" y="-282.7" font-family="DejaVu Sans Mono" font-size="9.00" fill="#33404b"> &#160;http://yt6.heissa.de:9095</text>
<text xml:space="preserve" text-anchor="start" x="225.64" y="-271.45" font-family="DejaVu Sans Mono" font-size="9.00" fill="#33404b"> &#160;POST /stt /translate /tts</text>
</g>
<!-- server&#45;&gt;client -->
<g id="edge7" class="edge">
<title>server&#45;&gt;client</title>
<path fill="none" stroke="#a86300" stroke-dasharray="5,2" d="M306.22,-224.96C358.8,-240.2 412.87,-265.69 384.64,-302.5 377.17,-312.24 356.83,-320.24 333.09,-326.59"/>
<polygon fill="#a86300" stroke="#a86300" points="332.29,-323.18 323.45,-329.02 334,-329.97 332.29,-323.18"/>
<text xml:space="preserve" text-anchor="start" x="392.36" y="-288.32" font-family="DejaVu Sans Mono" font-size="9.00" fill="#33404b">Antwort: {chunks}/{result}</text>
<text xml:space="preserve" text-anchor="start" x="392.36" y="-277.07" font-family="DejaVu Sans Mono" font-size="9.00" fill="#33404b">/tts → WAV → SLIN16</text>
</g>
<!-- pipe -->
<g id="node6" class="node">
<title>pipe</title>
<path fill="white" stroke="#a86300" d="M307.6,-141.25C307.6,-141.25 143.68,-141.25 143.68,-141.25 137.68,-141.25 131.68,-135.25 131.68,-129.25 131.68,-129.25 131.68,-117.25 131.68,-117.25 131.68,-111.25 137.68,-105.25 143.68,-105.25 143.68,-105.25 307.6,-105.25 307.6,-105.25 313.6,-105.25 319.6,-111.25 319.6,-117.25 319.6,-117.25 319.6,-129.25 319.6,-129.25 319.6,-135.25 313.6,-141.25 307.6,-141.25"/>
<text xml:space="preserve" text-anchor="start" x="146.89" y="-123.8" font-family="DejaVu Sans" font-weight="bold" font-size="11.00">STT → Übersetzung → TTS</text>
<text xml:space="preserve" text-anchor="start" x="144.64" y="-114.7" font-family="DejaVu Sans" font-size="9.00" fill="#555555">Whisper medium · NLLB&#45;200 · Piper</text>
</g>
<!-- server&#45;&gt;pipe -->
<g id="edge3" class="edge">
<title>server&#45;&gt;pipe</title>
<path fill="none" stroke="#3a4550" d="M225.64,-188.27C225.64,-178 225.64,-164.7 225.64,-152.89"/>
<polygon fill="#3a4550" stroke="#3a4550" points="229.14,-153.25 225.64,-143.25 222.14,-153.25 229.14,-153.25"/>
<text xml:space="preserve" text-anchor="middle" x="262.39" y="-161.95" font-family="DejaVu Sans Mono" font-size="9.00" fill="#33404b">GPU&#45;FIFO&#45;Queue</text>
</g>
<!-- gpu -->
<g id="node7" class="node">
<title>gpu</title>
<path fill="#f6e6c9" stroke="#a86300" d="M274.97,-58C274.97,-58 176.3,-58 176.3,-58 170.3,-58 164.3,-52 164.3,-46 164.3,-46 164.3,-34 164.3,-34 164.3,-28 170.3,-22 176.3,-22 176.3,-22 274.97,-22 274.97,-22 280.97,-22 286.97,-28 286.97,-34 286.97,-34 286.97,-46 286.97,-46 286.97,-52 280.97,-58 274.97,-58"/>
<text xml:space="preserve" text-anchor="start" x="177.26" y="-40.55" font-family="DejaVu Sans" font-weight="bold" font-size="11.00">NVIDIA Tesla P4</text>
<text xml:space="preserve" text-anchor="start" x="187.01" y="-31.45" font-family="DejaVu Sans" font-size="9.00" fill="#555555">7680 MiB · CUDA</text>
</g>
<!-- pipe&#45;&gt;gpu -->
<g id="edge4" class="edge">
<title>pipe&#45;&gt;gpu</title>
<path fill="none" stroke="#3a4550" d="M225.64,-105.02C225.64,-94.75 225.64,-81.45 225.64,-69.64"/>
<polygon fill="#3a4550" stroke="#3a4550" points="229.14,-70 225.64,-60 222.14,-70 229.14,-70"/>
<text xml:space="preserve" text-anchor="middle" x="236.14" y="-78.7" font-family="DejaVu Sans Mono" font-size="9.00" fill="#33404b">CUDA</text>
</g>
</g>
</svg>
