<?xml version="1.0" encoding="UTF-8" standalone="no"?>
<!DOCTYPE svg PUBLIC "-//W3C//DTD SVG 1.1//EN"
 "http://www.w3.org/Graphics/SVG/1.1/DTD/svg11.dtd">
<!-- Generated by graphviz version 14.1.2 (0)
 -->
<!-- Title: outbound_it Pages: 1 -->
<svg width="1172pt" height="491pt"
 viewBox="0.00 0.00 1172.00 491.00" xmlns="http://www.w3.org/2000/svg" xmlns:xlink="http://www.w3.org/1999/xlink">
<g id="graph0" class="graph" transform="scale(1 1) rotate(0) translate(4 487.27)">
<title>outbound_it</title>
<polygon fill="white" stroke="none" points="-4,4 -4,-487.27 1167.96,-487.27 1167.96,4 -4,4"/>
<text xml:space="preserve" text-anchor="start" x="223.86" y="-462.22" font-family="DejaVu Sans" font-weight="bold" font-size="19.00">Outbound&#45;Übersetzungscall — Linphone (DE) ruft +39… Italien (IT)</text>
<text xml:space="preserve" text-anchor="start" x="349.11" y="-450.82" font-family="DejaVu Sans" font-size="11.00" fill="#555555">SIP&#45;Nebenstelle → Asterisk → vsip&#45;Trunk → Partner · Live&#45;Übersetzung über Port 9095</text>
<g id="clust1" class="cluster">
<title>cluster_ip</title>
<path fill="#f4f6f9" stroke="#8894a1" d="M20,-74.17C20,-74.17 254,-74.17 254,-74.17 260,-74.17 266,-80.17 266,-86.17 266,-86.17 266,-360.02 266,-360.02 266,-366.02 260,-372.02 254,-372.02 254,-372.02 20,-372.02 20,-372.02 14,-372.02 8,-366.02 8,-360.02 8,-360.02 8,-86.17 8,-86.17 8,-80.17 14,-74.17 20,-74.17"/>
<text xml:space="preserve" text-anchor="start" x="111.5" y="-357.62" font-family="DejaVu Sans" font-weight="bold" font-size="12.00">ipgate1</text>
</g>
<!-- linphone -->
<g id="node1" class="node">
<title>linphone</title>
<path fill="#e7f0fb" stroke="#0b5cad" d="M189.08,-445.27C189.08,-445.27 34.92,-445.27 34.92,-445.27 28.92,-445.27 22.92,-439.27 22.92,-433.27 22.92,-433.27 22.92,-421.27 22.92,-421.27 22.92,-415.27 28.92,-409.27 34.92,-409.27 34.92,-409.27 189.08,-409.27 189.08,-409.27 195.08,-409.27 201.08,-415.27 201.08,-421.27 201.08,-421.27 201.08,-433.27 201.08,-433.27 201.08,-439.27 195.08,-445.27 189.08,-445.27"/>
<text xml:space="preserve" text-anchor="start" x="35.88" y="-427.82" font-family="DejaVu Sans" font-weight="bold" font-size="11.00">Linphone</text>
<text xml:space="preserve" text-anchor="start" x="91.38" y="-427.82" font-family="DejaVu Sans" font-size="11.00"> · SIP&#45;Nebenstelle</text>
<text xml:space="preserve" text-anchor="start" x="57.25" y="-418.72" font-family="DejaVu Sans" font-size="9.00" fill="#0b5cad">spricht &amp; hört DEUTSCH</text>
</g>
<!-- asterisk -->
<g id="node3" class="node">
<title>asterisk</title>
<path fill="white" stroke="#3a4550" d="M189.83,-335.77C189.83,-335.77 34.17,-335.77 34.17,-335.77 28.17,-335.77 22.17,-329.77 22.17,-323.77 22.17,-323.77 22.17,-302.93 22.17,-302.93 22.17,-296.93 28.17,-290.93 34.17,-290.93 34.17,-290.93 189.83,-290.93 189.83,-290.93 195.83,-290.93 201.83,-296.93 201.83,-302.93 201.83,-302.93 201.83,-323.77 201.83,-323.77 201.83,-329.77 195.83,-335.77 189.83,-335.77"/>
<text xml:space="preserve" text-anchor="start" x="58.75" y="-318.4" font-family="DejaVu Sans" font-weight="bold" font-size="11.00">Asterisk</text>
<text xml:space="preserve" text-anchor="start" x="109.75" y="-318.4" font-family="DejaVu Sans" font-size="11.00"> · Dialplan</text>
<text xml:space="preserve" text-anchor="start" x="35.12" y="-309.3" font-family="DejaVu Sans" font-size="9.00" fill="#555555">exten _+X. → LANG_CODE=39 (it)</text>
<text xml:space="preserve" text-anchor="start" x="43" y="-300.3" font-family="DejaVu Sans" font-size="9.00" fill="#555555">AS_EXTEN = +39…~it · slin16</text>
</g>
<!-- linphone&#45;&gt;asterisk -->
<g id="edge1" class="edge">
<title>linphone&#45;&gt;asterisk</title>
<path fill="none" stroke="#3a4550" d="M112,-408.78C112,-392.41 112,-367.53 112,-347.42"/>
<polygon fill="#3a4550" stroke="#3a4550" points="115.5,-347.44 112,-337.44 108.5,-347.44 115.5,-347.44"/>
<text xml:space="preserve" text-anchor="middle" x="161.12" y="-382.72" font-family="DejaVu Sans Mono" font-size="9.00" fill="#33404b"> &#160;① INVITE +39xxx &#160;</text>
</g>
<!-- partner -->
<g id="node2" class="node">
<title>partner</title>
<path fill="#e6f4ea" stroke="#1e7a34" d="M204.21,-36C204.21,-36 53.79,-36 53.79,-36 47.79,-36 41.79,-30 41.79,-24 41.79,-24 41.79,-12 41.79,-12 41.79,-6 47.79,0 53.79,0 53.79,0 204.21,0 204.21,0 210.21,0 216.21,-6 216.21,-12 216.21,-12 216.21,-24 216.21,-24 216.21,-30 210.21,-36 204.21,-36"/>
<text xml:space="preserve" text-anchor="start" x="54.75" y="-18.55" font-family="DejaVu Sans" font-weight="bold" font-size="11.00">Partner in Italien</text>
<text xml:space="preserve" text-anchor="start" x="158.25" y="-18.55" font-family="DejaVu Sans" font-size="11.00"> · +39…</text>
<text xml:space="preserve" text-anchor="start" x="67.88" y="-9.45" font-family="DejaVu Sans" font-size="9.00" fill="#1e7a34">spricht &amp; hört ITALIENISCH</text>
</g>
<!-- translator -->
<g id="node4" class="node">
<title>translator</title>
<path fill="#eaf5f6" stroke="#0d7a84" d="M240.34,-232.43C240.34,-232.43 33.66,-232.43 33.66,-232.43 27.66,-232.43 21.66,-226.43 21.66,-220.43 21.66,-220.43 21.66,-199.59 21.66,-199.59 21.66,-193.59 27.66,-187.59 33.66,-187.59 33.66,-187.59 240.34,-187.59 240.34,-187.59 246.34,-187.59 252.34,-193.59 252.34,-199.59 252.34,-199.59 252.34,-220.43 252.34,-220.43 252.34,-226.43 246.34,-232.43 240.34,-232.43"/>
<text xml:space="preserve" text-anchor="start" x="57.5" y="-215.06" font-family="DejaVu Sans" font-weight="bold" font-size="11.00">audiosocket_translator.py</text>
<text xml:space="preserve" text-anchor="start" x="34.62" y="-205.96" font-family="DejaVu Sans" font-size="9.00" fill="#555555">AudioSocket :9093 · 2 Beine (Caller+Partner)</text>
<text xml:space="preserve" text-anchor="start" x="80.38" y="-196.96" font-family="DejaVu Sans" font-size="9.00" fill="#555555">DE↔IT Bridge · VAD · AMI</text>
</g>
<!-- partner&#45;&gt;translator -->
<g id="edge5" class="edge">
<title>partner&#45;&gt;translator</title>
<path fill="none" stroke="#1e7a34" stroke-dasharray="5,2" d="M184.69,-36.46C191.95,-41.05 198.44,-46.8 203,-54 230.48,-97.4 228.36,-124.91 203,-169.59 200.9,-173.29 198.3,-176.68 195.36,-179.78"/>
<polygon fill="#1e7a34" stroke="#1e7a34" points="193.15,-177.05 188,-186.31 197.8,-182.29 193.15,-177.05"/>
<text xml:space="preserve" text-anchor="start" x="222.82" y="-108.87" font-family="DejaVu Sans Mono" font-size="9.00" fill="#1e7a34"> &#160;⑤ Partner&#45;Bein</text>
<text xml:space="preserve" text-anchor="start" x="222.82" y="-97.62" font-family="DejaVu Sans Mono" font-size="9.00" fill="#1e7a34"> &#160;audiosocket&#45;out :9093</text>
</g>
<!-- asterisk&#45;&gt;translator -->
<g id="edge2" class="edge">
<title>asterisk&#45;&gt;translator</title>
<path fill="none" stroke="#3a4550" d="M117.36,-290.61C120.72,-276.98 125.12,-259.16 128.9,-243.84"/>
<polygon fill="#3a4550" stroke="#3a4550" points="132.29,-244.73 131.28,-234.18 125.49,-243.05 132.29,-244.73"/>
<text xml:space="preserve" text-anchor="start" x="126.74" y="-264.38" font-family="DejaVu Sans Mono" font-size="9.00" fill="#33404b"> &#160;② Caller&#45;Bein</text>
<text xml:space="preserve" text-anchor="start" x="126.74" y="-253.13" font-family="DejaVu Sans Mono" font-size="9.00" fill="#33404b"> &#160;AudioSocket 127.0.0.1:9093</text>
</g>
<!-- vsip -->
<g id="node5" class="node">
<title>vsip</title>
<path fill="#eef1f4" stroke="#8894a1" d="M152.08,-124.17C152.08,-124.17 33.92,-124.17 33.92,-124.17 27.92,-124.17 21.92,-118.17 21.92,-112.17 21.92,-112.17 21.92,-100.17 21.92,-100.17 21.92,-94.17 27.92,-88.17 33.92,-88.17 33.92,-88.17 152.08,-88.17 152.08,-88.17 158.08,-88.17 164.08,-94.17 164.08,-100.17 164.08,-100.17 164.08,-112.17 164.08,-112.17 164.08,-118.17 158.08,-124.17 152.08,-124.17"/>
<text xml:space="preserve" text-anchor="start" x="43.5" y="-106.72" font-family="DejaVu Sans" font-weight="bold" font-size="11.00">PJSIP/vsip&#45;trunk</text>
<text xml:space="preserve" text-anchor="start" x="34.88" y="-97.62" font-family="DejaVu Sans" font-size="9.00" fill="#555555">i.vsip.eu · outbound_auth</text>
</g>
<!-- translator&#45;&gt;vsip -->
<g id="edge3" class="edge">
<title>translator&#45;&gt;vsip</title>
<path fill="none" stroke="#3a4550" d="M92.17,-187.12C86.08,-182.21 80.67,-176.39 77,-169.59 71.2,-158.85 73.26,-145.92 77.52,-134.62"/>
<polygon fill="#3a4550" stroke="#3a4550" points="80.58,-136.35 81.48,-125.8 74.19,-133.49 80.58,-136.35"/>
<text xml:space="preserve" text-anchor="start" x="77" y="-161.04" font-family="DejaVu Sans Mono" font-size="9.00" fill="#33404b"> &#160;③ AMI Originate</text>
<text xml:space="preserve" text-anchor="start" x="77" y="-149.79" font-family="DejaVu Sans Mono" font-size="9.00" fill="#33404b"> &#160;Dial(PJSIP/vsip&#45;trunk)</text>
</g>
<!-- infer -->
<g id="node6" class="node">
<title>infer</title>
<path fill="#fbf1df" stroke="#a86300" stroke-width="1.6" d="M628.34,-128.59C628.34,-128.59 367.66,-128.59 367.66,-128.59 361.66,-128.59 355.66,-122.59 355.66,-116.59 355.66,-116.59 355.66,-95.75 355.66,-95.75 355.66,-89.75 361.66,-83.75 367.66,-83.75 367.66,-83.75 628.34,-83.75 628.34,-83.75 634.34,-83.75 640.34,-89.75 640.34,-95.75 640.34,-95.75 640.34,-116.59 640.34,-116.59 640.34,-122.59 634.34,-128.59 628.34,-128.59"/>
<text xml:space="preserve" text-anchor="start" x="368.62" y="-111.22" font-family="DejaVu Sans" font-weight="bold" font-size="11.00">inference_server.py</text>
<text xml:space="preserve" text-anchor="start" x="489.38" y="-111.22" font-family="DejaVu Sans" font-size="11.00"> · </text>
<text xml:space="preserve" text-anchor="start" x="500.62" y="-111.22" font-family="DejaVu Sans" font-size="11.00" fill="#a86300">Port 9095 zugeschaltet</text>
<text xml:space="preserve" text-anchor="start" x="431.62" y="-102.12" font-family="DejaVu Sans" font-size="9.00" fill="#555555">yt6.heissa.de:9095 (Tesla P4)</text>
<text xml:space="preserve" text-anchor="start" x="420.38" y="-93.12" font-family="DejaVu Sans" font-size="9.00" fill="#555555">Whisper · NLLB · Piper · Keep&#45;Alive</text>
</g>
<!-- translator&#45;&gt;infer -->
<g id="edge6" class="edge">
<title>translator&#45;&gt;infer</title>
<path fill="none" stroke="#a86300" stroke-width="1.6" d="M226.05,-183.89C281.38,-168.28 352.29,-148.28 407.83,-132.61"/>
<polygon fill="#a86300" stroke="#a86300" stroke-width="1.6" points="225.45,-180.42 216.77,-186.51 227.35,-187.16 225.45,-180.42"/>
<polygon fill="#a86300" stroke="#a86300" stroke-width="1.6" points="408.43,-136.07 417.11,-129.99 406.53,-129.34 408.43,-136.07"/>
<text xml:space="preserve" text-anchor="start" x="349.83" y="-161.04" font-family="DejaVu Sans Mono" font-size="9.00" fill="#8a5200"> &#160;⑥ STT · Übersetzung · TTS</text>
<text xml:space="preserve" text-anchor="start" x="349.83" y="-149.79" font-family="DejaVu Sans Mono" font-size="9.00" fill="#8a5200"> &#160;HTTP :9095 (persistent)</text>
</g>
<!-- richtung -->
<g id="node7" class="node">
<title>richtung</title>
<polygon fill="#fffdf5" stroke="#a86300" points="1157.96,-129.09 658.04,-129.09 658.04,-83.25 1163.96,-83.25 1163.96,-123.09 1157.96,-129.09"/>
<polyline fill="none" stroke="#a86300" points="1157.96,-129.09 1157.96,-123.09"/>
<polyline fill="none" stroke="#a86300" points="1163.96,-123.09 1157.96,-123.09"/>
<text xml:space="preserve" text-anchor="start" x="671" y="-112.67" font-family="DejaVu Sans" font-weight="bold" font-size="10.00">Live&#45;Übersetzung (bidirektional)</text>
<text xml:space="preserve" text-anchor="start" x="671" y="-102.67" font-family="DejaVu Sans" font-size="10.00"> &#160;&#160;&#160;&#160;&#160;</text>
<text xml:space="preserve" text-anchor="start" x="689" y="-102.67" font-family="DejaVu Sans" font-size="10.00" fill="#0b5cad">▶ Hinweg:</text>
<text xml:space="preserve" text-anchor="start" x="739.25" y="-102.67" font-family="DejaVu Sans" font-size="10.00"> Linphone </text>
<text xml:space="preserve" text-anchor="start" x="789.5" y="-102.67" font-family="DejaVu Sans" font-weight="bold" font-size="10.00">DE</text>
<text xml:space="preserve" text-anchor="start" x="804.5" y="-102.67" font-family="DejaVu Sans" font-size="10.00"> → STT(de) → NLLB de→it → TTS(it) → Partner hört </text>
<text xml:space="preserve" text-anchor="start" x="1046" y="-102.67" font-family="DejaVu Sans" font-weight="bold" font-size="10.00">Italienisch</text>
<text xml:space="preserve" text-anchor="start" x="671" y="-92.67" font-family="DejaVu Sans" font-size="10.00"> &#160;&#160;&#160;&#160;&#160;</text>
<text xml:space="preserve" text-anchor="start" x="689" y="-92.67" font-family="DejaVu Sans" font-size="10.00" fill="#1e7a34">◀ Rückweg:</text>
<text xml:space="preserve" text-anchor="start" x="746.75" y="-92.67" font-family="DejaVu Sans" font-size="10.00"> Partner </text>
<text xml:space="preserve" text-anchor="start" x="787.25" y="-92.67" font-family="DejaVu Sans" font-weight="bold" font-size="10.00">IT</text>
<text xml:space="preserve" text-anchor="start" x="797.75" y="-92.67" font-family="DejaVu Sans" font-size="10.00"> → STT(it) → NLLB it→de → TTS(de) → Linphone hört </text>
<text xml:space="preserve" text-anchor="start" x="1049" y="-92.67" font-family="DejaVu Sans" font-weight="bold" font-size="10.00">Deutsch</text>
<text xml:space="preserve" text-anchor="start" x="1094" y="-92.67" font-family="DejaVu Sans" font-size="10.00"> (Feedback)</text>
</g>
<!-- translator&#45;&gt;richtung -->
<!-- vsip&#45;&gt;partner -->
<g id="edge4" class="edge">
<title>vsip&#45;&gt;partner</title>
<path fill="none" stroke="#3a4550" d="M57.82,-87.77C44.03,-78.52 33.3,-66.5 41.75,-54 44.6,-49.78 48.06,-46.07 51.93,-42.8"/>
<polygon fill="#3a4550" stroke="#3a4550" points="53.64,-45.88 59.75,-37.23 49.57,-40.18 53.64,-45.88"/>
<text xml:space="preserve" text-anchor="middle" x="122.38" y="-56.7" font-family="DejaVu Sans Mono" font-size="9.00" fill="#33404b"> &#160;④ SIP → i.vsip.eu → Italien &#160;</text>
</g>
</g>
</svg>
